{
    "accessors" : [
        {
            "bufferView" : 0,
            "componentType" : 5123,
            "count" : 32301,
            "max" : [
                5843
            ],
            "min" : [
                0
            ],
            "type" : "SCALAR"
        },
        {
            "bufferView" : 1,
            "componentType" : 5126,
            "count" : 5844,
            "max" : [
                1.2248454093933105,
                1.4596002101898193,
                1.4015119075775146
            ],
            "min" : [
                -1.1066657304763794,
                -2.039144992828369,
                -1.1799750328063965
            ],
            "type" : "VEC3"
        },
        {
            "bufferView" : 2,
            "componentType" : 5126,
            "count" : 5844,
            "max" : [
                0.99993896484375,
                0.999847412109375,
                0.9764702320098877
            ],
            "min" : [
                -0.9566332101821899,
                -0.9953917264938354,
                -0.9919126033782959
            ],
            "type" : "VEC3"
        },
        {
            "bufferView" : 3,
            "componentType" : 5126,
            "count" : 5844,
            "max" : [
                1.0,
                0.8042844533920288,
                0.9979676604270935,
                1.0
            ],
            "min" : [
                -0.9996944069862366,
                -0.7998006343841553,
                -0.9996248483657837,
                -1.0
            ],
            "type" : "VEC4"
        },
        {
            "bufferView" : 4,
            "componentType" : 5126,
            "count" : 5844,
            "max" : [
                3.456254005432129,
                0.6742480099201202
            ],
            "min" : [
                3.0007529258728027,
                0.026479005813598633
            ],
            "type" : "VEC2"
        },
        {
            "bufferView" : 5,
            "componentType" : 5123,
            "count" : 28653,
            "max" : [
                5862
            ],
            "min" : [
                0
            ],
            "type" : "SCALAR"
        },
        {
            "bufferView" : 6,
            "componentType" : 5126,
            "count" : 5863,
            "max" : [
                1.206587314605713,
                1.46073317527771,
                1.1491379737854004
            ],
            "min" : [
                -1.231299638748169,
                -1.823024868965149,
                -1.6446750164031982
            ],
            "type" : "VEC3"
        },
        {
            "bufferView" : 7,
            "componentType" : 5126,
            "count" : 5863,
            "max" : [
                0.999481201171875,
                0.9983825087547302,
                0.9985350966453552
            ],
            "min" : [
                -0.999969482421875,
                -0.99951171875,
                -0.99981689453125
            ],
            "type" : "VEC3"
        },
        {
            "bufferView" : 8,
            "componentType" : 5126,
            "count" : 5863,
            "max" : [
                1.0,
                0.9985529184341431,
                0.9988775849342346,
                1.0
            ],
            "min" : [
                -0.998902440071106,
                -0.7513107657432556,
                -0.9952327013015747,
                -1.0
            ],
            "type" : "VEC4"
        },
        {
            "bufferView" : 9,
            "componentType" : 5126,
            "count" : 5863,
            "max" : [
                1.9994659423828125,
                0.9965439999941736
            ],
            "min" : [
                1.000432014465332,
                0.0008170008659362793
            ],
            "type" : "VEC2"
        },
        {
            "bufferView" : 10,
            "componentType" : 5123,
            "count" : 22077,
            "max" : [
                4810
            ],
            "min" : [
                0
            ],
            "type" : "SCALAR"
        },
        {
            "bufferView" : 11,
            "componentType" : 5126,
            "count" : 4811,
            "max" : [
                1.2065153121948242,
                1.4596002101898193,
                1.4073879718780518
            ],
            "min" : [
                -1.207000732421875,
                -2.02725887298584,
                -1.6446750164031982
            ],
            "type" : "VEC3"
        },
        {
            "bufferView" : 12,
            "componentType" : 5126,
            "count" : 4811,
            "max" : [
                0.999481201171875,
                0.9983825087547302,
                0.9993896484375
            ],
            "min" : [
                -0.9848628044128418,
                -0.999237060546875,
                -0.99957275390625
            ],
            "type" : "VEC3"
        },
        {
            "bufferView" : 13,
            "componentType" : 5126,
            "count" : 4811,
            "max" : [
                1.0,
                0.8730376362800598,
                0.9727928042411804,
                1.0
            ],
            "min" : [
                -0.99997878074646,
                -0.900723397731781,
                -0.9999470114707947,
                -1.0
            ],
            "type" : "VEC4"
        },
        {
            "bufferView" : 14,
            "componentType" : 5126,
            "count" : 4811,
            "max" : [
                2.7374401092529297,
                0.8147460073232651
            ],
            "min" : [
                2.000778913497925,
                0.014910995960235596
            ],
            "type" : "VEC2"
        },
        {
            "bufferView" : 15,
            "componentType" : 5123,
            "count" : 37266,
            "max" : [
                7168
            ],
            "min" : [
                0
            ],
            "type" : "SCALAR"
        },
        {
            "bufferView" : 16,
            "componentType" : 5126,
            "count" : 7169,
            "max" : [
                1.1911463737487793,
                1.46073317527771,
                1.4158918857574463
            ],
            "min" : [
                -1.231299638748169,
                -2.0299978256225586,
                -1.3703410625457764
            ],
            "type" : "VEC3"
        },
        {
            "bufferView" : 17,
            "componentType" : 5126,
            "count" : 7169,
            "max" : [
                0.9768974781036377,
                0.999969482421875,
                0.99993896484375
            ],
            "min" : [
                -0.999755859375,
                -0.99951171875,
                -0.999725341796875
            ],
            "type" : "VEC3"
        },
        {
            "bufferView" : 18,
            "componentType" : 5126,
            "count" : 7169,
            "max" : [
                1.0,
                0.9999585151672363,
                0.999996542930603,
                1.0
            ],
            "min" : [
                -0.9995664954185486,
                -0.8503143787384033,
                -0.9998914003372192,
                -1.0
            ],
            "type" : "VEC4"
        },
        {
            "bufferView" : 19,
            "componentType" : 5126,
            "count" : 7169,
            "max" : [
                0.9994850158691406,
                0.9978620000183582
            ],
            "min" : [
                0.0007469999836757779,
                0.0008109807968139648
            ],
            "type" : "VEC2"
        }
    ],
    "asset" : {
        "generator" : "Khronos Blender glTF 2.0 exporter",
        "version" : "2.0"
    },
    "bufferViews" : [
        {
            "buffer" : 0,
            "byteLength" : 64602,
            "byteOffset" : 0,
            "target" : 34963
        },
        {
            "buffer" : 0,
            "byteLength" : 70128,
            "byteOffset" : 64604,
            "target" : 34962
        },
        {
            "buffer" : 0,
            "byteLength" : 70128,
            "byteOffset" : 134732,
            "target" : 34962
        },
        {
            "buffer" : 0,
            "byteLength" : 93504,
            "byteOffset" : 204860,
            "target" : 34962
        },
        {
            "buffer" : 0,
            "byteLength" : 46752,
            "byteOffset" : 298364,
            "target" : 34962
        },
        {
            "buffer" : 0,
            "byteLength" : 57306,
            "byteOffset" : 345116,
            "target" : 34963
        },
        {
            "buffer" : 0,
            "byteLength" : 70356,
            "byteOffset" : 402424,
            "target" : 34962
        },
        {
            "buffer" : 0,
            "byteLength" : 70356,
            "byteOffset" : 472780,
            "target" : 34962
        },
        {
            "buffer" : 0,
            "byteLength" : 93808,
            "byteOffset" : 543136,
            "target" : 34962
        },
        {
            "buffer" : 0,
            "byteLength" : 46904,
            "byteOffset" : 636944,
            "target" : 34962
        },
        {
            "buffer" : 0,
            "byteLength" : 44154,
            "byteOffset" : 683848,
            "target" : 34963
        },
        {
            "buffer" : 0,
            "byteLength" : 57732,
            "byteOffset" : 728004,
            "target" : 34962
        },
        {
            "buffer" : 0,
            "byteLength" : 57732,
            "byteOffset" : 785736,
            "target" : 34962
        },
        {
            "buffer" : 0,
            "byteLength" : 76976,
            "byteOffset" : 843468,
            "target" : 34962
        },
        {
            "buffer" : 0,
            "byteLength" : 38488,
            "byteOffset" : 920444,
            "target" : 34962
        },
        {
            "buffer" : 0,
            "byteLength" : 74532,
            "byteOffset" : 958932,
            "target" : 34963
        },
        {
            "buffer" : 0,
            "byteLength" : 86028,
            "byteOffset" : 1033464,
            "target" : 34962
        },
        {
            "buffer" : 0,
            "byteLength" : 86028,
            "byteOffset" : 1119492,
            "target" : 34962
        },
        {
            "buffer" : 0,
            "byteLength" : 114704,
            "byteOffset" : 1205520,
            "target" : 34962
        },
        {
            "buffer" : 0,
            "byteLength" : 57352,
            "byteOffset" : 1320224,
            "target" : 34962
        }
    ],
    "buffers" : [
        {
            "byteLength" : 1377576,
            "uri" : "b_skull.bin"
        }
    ],
    "images" : [
        {
            "name" : "skull_zfree_tex0",
            "uri" : "skull_zfree_tex0.jpg"
        },
        {
            "name" : "skull_zfree_tex1",
            "uri" : "skull_zfree_tex1.jpg"
        },
        {
            "name" : "skull_zfree_tex2",
            "uri" : "skull_zfree_tex2.jpg"
        },
        {
            "name" : "skull_zfree_tex3",
            "uri" : "skull_zfree_tex3.jpg"
        }
    ],
    "materials" : [
        {
            "alphaMode" : "BLEND",
            "name" : "skull_zfree_tex0",
            "pbrMetallicRoughness" : {
                "baseColorTexture" : {
                    "index" : 0
                },
                "metallicFactor" : 0.0
            }
        },
        {
            "alphaMode" : "BLEND",
            "name" : "skull_zfree_tex1",
            "pbrMetallicRoughness" : {
                "baseColorTexture" : {
                    "index" : 1
                },
                "metallicFactor" : 0.0
            }
        },
        {
            "alphaMode" : "BLEND",
            "name" : "skull_zfree_tex2",
            "pbrMetallicRoughness" : {
                "baseColorTexture" : {
                    "index" : 2
                },
                "metallicFactor" : 0.0
            }
        },
        {
            "alphaMode" : "BLEND",
            "name" : "skull_zfree_tex3",
            "pbrMetallicRoughness" : {
                "baseColorTexture" : {
                    "index" : 3
                },
                "metallicFactor" : 0.0
            }
        }
    ],
    "meshes" : [
        {
            "name" : "Group_Global",
            "primitives" : [
                {
                    "attributes" : {
                        "NORMAL" : 2,
                        "POSITION" : 1,
                        "TANGENT" : 3,
                        "TEXCOORD_0" : 4
                    },
                    "indices" : 0,
                    "material" : 3
                },
                {
                    "attributes" : {
                        "NORMAL" : 7,
                        "POSITION" : 6,
                        "TANGENT" : 8,
                        "TEXCOORD_0" : 9
                    },
                    "indices" : 5,
                    "material" : 1
                },
                {
                    "attributes" : {
                        "NORMAL" : 12,
                        "POSITION" : 11,
                        "TANGENT" : 13,
                        "TEXCOORD_0" : 14
                    },
                    "indices" : 10,
                    "material" : 2
                },
                {
                    "attributes" : {
                        "NORMAL" : 17,
                        "POSITION" : 16,
                        "TANGENT" : 18,
                        "TEXCOORD_0" : 19
                    },
                    "indices" : 15,
                    "material" : 0
                }
            ]
        }
    ],
    "nodes" : [
        {
            "mesh" : 0,
            "name" : "Group_Global",
            "rotation" : [
                -0.2038724571466446,
                0.14372429251670837,
                0.023595495149493217,
                0.9681025743484497
            ]
        }
    ],
    "samplers" : [
        {}
    ],
    "scene" : 0,
    "scenes" : [
        {
            "name" : "Scene",
            "nodes" : [
                0
            ]
        }
    ],
    "textures" : [
        {
            "sampler" : 0,
            "source" : 0
        },
        {
            "sampler" : 0,
            "source" : 1
        },
        {
            "sampler" : 0,
            "source" : 2
        },
        {
            "sampler" : 0,
            "source" : 3
        }
    ]
}
